<?xml version="1.0" encoding="UTF-8" standalone="no"?>
<!DOCTYPE svg PUBLIC "-//W3C//DTD SVG 1.1//EN" "http://www.w3.org/Graphics/SVG/1.1/DTD/svg11.dtd">
<svg width="100%" height="100%" viewBox="0 0 306 115" version="1.1" xmlns="http://www.w3.org/2000/svg" xmlns:xlink="http://www.w3.org/1999/xlink" xml:space="preserve" xmlns:serif="http://www.serif.com/" style="fill-rule:evenodd;clip-rule:evenodd;stroke-linejoin:round;stroke-miterlimit:2;">
    <g id="Layer_1-2">
        <path d="M123.55,75.13C121.55,76.76 119.69,78.46 117.62,79.82C115.55,81.18 115,83 115.06,85.45C115.241,88.594 115.002,91.749 114.35,94.83C111.87,105.43 104.13,112.19 92.61,112.93C81.74,113.62 70.81,113.37 59.91,113.51C59.817,113.52 59.724,113.526 59.63,113.526C58.248,113.526 57.11,112.388 57.11,111.006C57.11,110.9 57.117,110.795 57.13,110.69C57,101.45 56.94,92.21 57,83C57.163,82.15 57.642,81.392 58.34,80.88C60.57,79.02 62.91,77.3 65.34,75.4C62.4,69.86 59.9,64.2 56.54,59.09C53.34,54.19 53,49.84 56,44.89C56.807,43.262 57.189,41.456 57.11,39.64C57.21,28.24 57.11,16.83 57.11,5.42C57.11,1.57 57.63,1 61.37,1.05C71.11,1.16 80.86,1.05 90.58,1.5C105.47,2.19 115.18,12.5 115.45,27.39C115.45,29.3 115.37,31.23 115.53,33.13C116.15,38.864 114.965,44.651 112.14,49.68C111.673,50.851 111.721,52.166 112.27,53.3C115.91,60.58 119.72,67.77 123.55,75.13ZM83.44,75.13C81.01,77.13 78.65,78.92 76.37,80.84C75.79,81.33 75.06,82.09 75.04,82.74C74.94,88.11 74.98,93.49 74.98,98.93C79.66,98.93 83.67,99.21 87.62,98.87C92.94,98.4 95.62,95.7 96.62,90.37C96.959,88.827 97.03,87.237 96.83,85.67C96.34,82.81 97.38,80.99 99.76,79.51C101.65,78.34 103.33,76.82 105.23,75.36C101.48,68.3 97.87,61.36 94.13,54.53C93.178,53.079 93.082,51.221 93.88,49.68C95.13,46.99 96.63,44.18 96.88,41.31C97.226,36.316 97.226,31.304 96.88,26.31C96.66,21.02 94.22,17.23 89.72,16.31C85.07,15.4 80.22,15.49 75.29,15.13C75.29,22.06 75.07,28.31 75.36,34.54C75.61,39.77 74.85,44.63 72.12,49.11C71.12,50.73 71.38,52.11 72.26,53.73C76.07,60.82 79.7,67.93 83.44,75.13Z" style="fill:white;fill-rule:nonzero;"/>
        <path d="M288.53,37.67L288.53,31.27L288.53,4.78C288.53,1.78 289.24,1.06 292.16,1.04L301.66,1.04C305.06,1.04 305.59,1.56 305.59,4.94L305.59,109.41C305.59,113.18 305.2,113.56 301.43,113.57C298.604,113.69 295.773,113.66 292.95,113.48C291.411,113.348 289.979,112.632 288.95,111.48C284.03,104.36 279.35,97.07 274.6,89.83C274.393,89.432 274.213,89.021 274.06,88.6L288,88.6L288,42.6C283.72,42.6 279.57,42.53 275.43,42.6C274.033,42.779 272.664,42.072 272,40.83C270.44,38.22 268.68,35.71 266.64,32.6C266.494,33.506 266.424,34.422 266.43,35.34C266.993,40.249 265.887,45.207 263.29,49.41C262.502,50.688 262.549,52.32 263.41,53.55C267.2,60.66 270.88,67.83 274.69,75.15C272.25,77.09 269.84,78.86 267.63,80.85C266.847,81.612 266.376,82.639 266.31,83.73C266.26,92.48 266.37,101.22 266.4,109.97C266.4,112.78 265.66,113.5 262.84,113.52L252.6,113.52C249.96,113.52 249.2,112.75 249.18,110.08C249.11,101.17 249.05,92.26 249.1,83.34C249.203,82.406 249.662,81.546 250.38,80.94C252.66,79.01 255.08,77.25 257.52,75.36C253.75,68.24 250.11,61.23 246.33,54.3C245.409,52.999 245.326,51.273 246.12,49.89C248.8,45.19 249.37,40.12 249.23,34.75C248.99,24.93 249.16,15.1 249.17,5.27C249.17,1.59 249.72,1.05 253.32,1.04C255.9,1.04 258.48,1.1 261.06,1.04C263.33,0.845 265.509,2.029 266.58,4.04C273.13,14.57 279.82,25.04 286.46,35.5L287.93,37.79L288.53,37.67Z" style="fill:white;fill-rule:nonzero;"/>
        <path d="M251.21,75.16C248.75,77.16 246.43,78.75 244.37,80.68C243.509,81.587 242.974,82.755 242.85,84C242.52,87.3 242.85,90.7 242.25,93.93C240.25,104.93 233.25,111.28 222.51,113.51C214.66,115.15 206.75,115.14 199.13,112.24C188.84,108.33 183.61,100.24 182.88,89.24C182.52,83.85 183.62,79.92 188.61,77.44C189.57,76.833 190.471,76.137 191.3,75.36C188.45,69.95 186.02,64.43 182.77,59.46C179.52,54.49 178.77,49.82 182.07,44.64C182.685,43.382 182.974,41.989 182.91,40.59C183.13,34.52 182.75,28.39 183.46,22.38C185,9.14 194.69,2.08 206.83,0.55C213.4,-0.28 220,-0.07 226.28,2.29C237.19,6.35 242.28,14.55 242.88,25.81C243.255,30.709 243.255,35.631 242.88,40.53C242.58,43.53 241.05,46.53 239.82,49.36C239.135,50.667 239.177,52.241 239.93,53.51C243.7,60.62 247.38,67.8 251.21,75.16ZM232.36,75.36C228.93,68.89 225.74,62.5 222.18,56.36C220.49,53.43 219.99,50.93 221.78,47.88C223.054,45.928 223.855,43.706 224.12,41.39C224.398,35.724 224.325,30.047 223.9,24.39C223.43,18.18 219.22,14.62 213.1,14.56C206.8,14.5 202.68,17.99 201.99,24.33C201.569,27.8 201.452,31.3 201.64,34.79C202.102,39.937 201.023,45.107 198.54,49.64C198.055,50.802 198.077,52.115 198.6,53.26C201.43,59 204.47,64.64 207.42,70.32C208.25,71.92 209.05,73.54 209.88,75.19C207.36,77.19 204.97,79.02 202.71,80.97C202.05,81.529 201.628,82.32 201.53,83.18C201.513,85.857 201.701,88.531 202.09,91.18C203.02,96.77 206.83,99.93 212.45,100.08C218.53,100.24 222.45,97.41 223.66,91.64C224.078,89.516 224.162,87.34 223.91,85.19C223.52,83.037 224.587,80.867 226.53,79.86C228.54,78.51 230.35,76.91 232.36,75.36Z" style="fill:white;fill-rule:nonzero;"/>
        <path d="M17.57,15.51L17.57,27.57C18.49,27.63 19.36,27.72 20.23,27.73L44.23,27.73C47.81,27.73 48.39,28.36 48.4,31.99L48.4,37.24C48.4,40.98 47.85,41.51 44.01,41.51L17.64,41.51L17.64,99.06L47.4,99.06C50.54,99.06 51.25,99.77 51.28,102.85L51.28,110.1C51.28,112.78 50.53,113.52 47.85,113.52L3.6,113.52C0.7,113.52 0.02,112.79 0.02,109.75C0,102 0,94.25 0,86.5L0,5.5C0,1.47 0.43,1 4.41,1L46.16,1C49.96,1 50.48,1.52 50.48,5.31L50.48,12.06C50.48,14.72 49.75,15.45 47.04,15.46L20.04,15.46L17.57,15.51Z" style="fill:white;fill-rule:nonzero;"/>
        <path d="M128.06,75.34C124.18,68 120.38,61 116.76,53.89C116.212,52.749 116.162,51.43 116.62,50.25C118.989,45.47 120.025,40.139 119.62,34.82C119.369,30.412 119.56,25.99 120.19,21.62C121.9,10.9 128.37,4.1 138.82,1.49C148.69,-1 158.5,-0.58 167.76,4.18C174.163,7.316 178.647,13.388 179.76,20.43C180.55,24.72 179.85,25.52 175.58,25.52C171.99,25.52 168.41,25.45 164.83,25.52C162.76,25.58 161.47,24.79 160.98,22.78C158.98,14.27 150.78,13.51 145.08,15.27C140.23,16.76 138.73,20.88 138.48,25.45C138.25,29.61 138.21,33.79 138.37,37.94C138.5,41.03 138.23,43.94 136.5,46.53C134.23,49.92 134.74,52.89 136.76,56.33C140.29,62.33 143.28,68.67 146.64,75.13C144.27,77.01 141.85,78.75 139.64,80.75C138.802,81.567 138.302,82.671 138.24,83.84C138.229,86.667 138.48,89.489 138.99,92.27C139.577,96.317 142.914,99.445 146.99,99.77C154.2,100.66 159.21,98.55 160.99,91.77C161.242,90.032 162.856,88.793 164.6,89L176.84,89C179.45,89 180.17,89.74 179.95,92.33C179.27,100.13 175.35,105.93 168.67,109.86C163.349,112.875 157.326,114.434 151.21,114.38C145.877,114.602 140.55,113.828 135.5,112.1C124.71,108.1 120.44,98.97 119.56,88.63C119.09,83.21 120.88,79.84 125.35,77.37C126.302,76.761 127.208,76.083 128.06,75.34Z" style="fill:white;fill-rule:nonzero;"/>
    </g>
</svg>
