<?xml version="1.0" encoding="UTF-8" standalone="no"?>
<!DOCTYPE svg PUBLIC "-//W3C//DTD SVG 1.1//EN" "http://www.w3.org/Graphics/SVG/1.1/DTD/svg11.dtd">
<svg width="100%" height="100%" viewBox="0 0 140 114" version="1.1" xmlns="http://www.w3.org/2000/svg" xmlns:xlink="http://www.w3.org/1999/xlink" xml:space="preserve" xmlns:serif="http://www.serif.com/" style="fill-rule:evenodd;clip-rule:evenodd;stroke-linejoin:round;stroke-miterlimit:2;">
    <g transform="matrix(1,0,0,1,-36236.9,-2261.4)">
        <g transform="matrix(1,0,0,1,-34.256,-36.0257)">
            <rect x="36271.2" y="2297.43" width="139.332" height="113.277" style="fill:none;"/>
            <g transform="matrix(0.762624,0,0,8.14406,34983.6,2270.9)">
                <g transform="matrix(2.56462,0,0,0.240155,1609.1,-75.8398)">
                    <g transform="matrix(-0.0868662,-0.0223035,3.33934e-17,0.0726807,2083.96,564.246)">
                        <path d="M23316.9,4023.41L23315.7,4023.12L23314.6,4022.89L23313.5,4022.7L23312.3,4022.53L23311.2,4022.4L23310.1,4022.31L23309,4022.26L23308.1,4022.24L22908.8,4022.25L22907.8,4022.25L22906.6,4022.32L22905.6,4022.4L22904.6,4022.51L22903.7,4022.65L22902.5,4022.84L22901.6,4023.05L22900.7,4023.25L22899.6,4023.56L22898.5,4023.9L22897.7,4024.2L22896.9,4024.5L22895.9,4024.92L22895.1,4025.28L22894.3,4025.65L22893.4,4026.14L22892.5,4026.66L22891.7,4027.09L22891.1,4027.52L22890.1,4028.12L22889.3,4028.75L22888.7,4029.22L22888.1,4029.69L22887.2,4030.36L22886.4,4031.08L22885.6,4031.83L22885.1,4032.35L22884.6,4032.86L22883.6,4033.91L22883.2,4034.45L22882.7,4034.99L22881.8,4036.11L22881.1,4036.98L22880.7,4037.56L22880.3,4038.13L22879.7,4039.02L22879.1,4039.94L22878.5,4040.88L22878,4041.83L22877.5,4042.8L22877,4043.78L22876.7,4044.38L22876.2,4045.39L22875.8,4046.42L22875.5,4047.03L22875.1,4048.06L22874.6,4049.55L22874.2,4050.63L22874,4051.26L22873.7,4052.34L22873.2,4053.93L22873.1,4054.56L22872.8,4055.68L22872.5,4057.33L22872.4,4057.97L22872.1,4059.13L22872,4060.3L22871.8,4061.47L22871.6,4063.2L22871.5,4064.42L22871.4,4065.63L22871.4,4066.85L22871.4,4067.51L22871.3,4068.73L22871.3,4448.9L22871.4,4450.16L22871.4,4450.83L22871.4,4452.1L22871.5,4453.39L22871.6,4454.68L22871.8,4456.61L22872,4457.95L22872.2,4459.29L22872.5,4460.64L22872.6,4461.37L22872.7,4462.02L22873,4463.37L22873.3,4464.71L22873.4,4464.75L22873.5,4465.52L22874.1,4467.56L22874.5,4468.95L22874.8,4469.73L22875.2,4471.15L22876,4473.17L22876.6,4474.6L22876.9,4475.43L22877.5,4476.82L22878.2,4478.26L22878.6,4479.09L22879.3,4480.49L22880.1,4481.9L22880.8,4483.25L22881.7,4484.62L22882.5,4485.98L22883.4,4487.29L22884,4488.16L22884.7,4489.04L22885.6,4490.29L22886.9,4491.89L22887.7,4492.78L22888.4,4493.62L22889.7,4495.07L22890.6,4495.92L22891.4,4496.71L22892.5,4497.76L22893.6,4498.75L22894.8,4499.72L22895.7,4500.48L22896.7,4501.19L22897.8,4502.02L22899,4502.81L22900,4503.46L22901.1,4504.09L22902.3,4504.76L22903.5,4505.36L22904.5,4505.89L22905.7,4506.4L22906.8,4506.87L22908,4507.3L22909.1,4507.68L22910.2,4508.04L22911.3,4508.35L22912.5,4508.64L22913.6,4508.87L22914.7,4509.07L22915.9,4509.24L22917,4509.36L22918.1,4509.45L22919.2,4509.5L22920.1,4509.52L23319.4,4509.52L23320.4,4509.51L23321.6,4509.45L23322.6,4509.36L23323.6,4509.25L23324.5,4509.12L23325.7,4508.92L23326.6,4508.71L23327.5,4508.51L23328.6,4508.21L23329.7,4507.87L23330.5,4507.57L23331.3,4507.26L23332.3,4506.85L23333.1,4506.49L23333.9,4506.11L23334.8,4505.63L23335.5,4505.23L23336.5,4504.68L23337.4,4504.09L23338,4503.65L23338.9,4503.01L23339.5,4502.54L23340.1,4502.07L23341,4501.41L23341.8,4500.69L23342.3,4500.16L23343.1,4499.43L23343.8,4498.66L23344.6,4497.86L23345,4497.32L23345.5,4496.77L23346.4,4495.65L23347.1,4494.78L23347.5,4494.2L23347.9,4493.64L23348.5,4492.74L23349.1,4491.82L23349.6,4490.89L23350.2,4489.93L23350.7,4488.97L23351,4488.36L23351.5,4487.39L23352,4486.37L23352.4,4485.35L23352.8,4484.32L23353.1,4483.71L23353.6,4482.22L23354,4481.13L23354.2,4480.51L23354.5,4479.43L23354.8,4478.32L23355.1,4477.21L23355.5,4475.59L23355.7,4474.43L23355.8,4473.79L23356.1,4472.64L23356.2,4471.47L23356.4,4470.29L23356.6,4468.56L23356.7,4467.35L23356.7,4466.69L23356.8,4464.93L23356.8,4463.69L23356.9,4463.03L23356.9,4082.86L23356.8,4082.2L23356.8,4080.94L23356.7,4079.06L23356.7,4078.38L23356.6,4077.09L23356.4,4075.15L23356.2,4073.82L23356,4072.48L23355.7,4071.12L23355.6,4070.4L23355.3,4069.03L23354.9,4067.01L23354.5,4065.61L23354.1,4064.21L23353.7,4062.81L23353.4,4062.03L23352.9,4060.62L23352.2,4058.59L23351.9,4057.78L23351.8,4057.7L23351.3,4056.37L23350.7,4055.06L23350.7,4054.93L23350.6,4054.83L23350,4053.54L23349.4,4052.29L23349.3,4052.15L23348.9,4051.28L23348.1,4049.87L23347.4,4048.51L23346.5,4047.14L23345.7,4045.78L23344.8,4044.47L23344.2,4043.61L23343.5,4042.72L23342.6,4041.47L23341.3,4039.87L23340.5,4038.99L23339.8,4038.14L23338.7,4036.97L23337.6,4035.86L23336.6,4034.81L23335.7,4034L23334.6,4033.02L23333.4,4032.05L23332.4,4031.29L23331.5,4030.58L23330.3,4029.74L23329.3,4029.06L23328.2,4028.33L23326.9,4027.6L23325.9,4027.01L23324.7,4026.41L23323.6,4025.88L23322.5,4025.37L23321.4,4024.9L23320.2,4024.47L23319.1,4024.08L23318,4023.72L23316.9,4023.41ZM23318.7,4051.47L23319.2,4051.63L23319.6,4051.81L23320.1,4052.01L23320.6,4052.22L23321,4052.44L23321.5,4052.68L23322,4052.93L23322.4,4053.19L23322.8,4053.47L23323.3,4053.76L23323.7,4054.07L23324.1,4054.38L23324.5,4054.71L23324.9,4055.05L23325.3,4055.4L23325.7,4055.77L23326.1,4056.14L23326.5,4056.53L23326.9,4056.93L23327.2,4057.34L23327.6,4057.76L23327.9,4058.19L23328.3,4058.63L23328.6,4059.09L23328.9,4059.55L23329.2,4060.02L23329.5,4060.5L23329.8,4060.99L23330.1,4061.49L23330.4,4062L23330.7,4062.51L23330.9,4063.04L23331.2,4063.58L23331.4,4064.12L23331.6,4064.67L23331.8,4065.23L23332.1,4065.79L23332.2,4066.37L23332.4,4066.95L23332.6,4067.53L23332.8,4068.13L23332.9,4068.73L23333.1,4069.34L23333.2,4069.95L23333.3,4070.57L23333.4,4071.19L23333.5,4071.82L23333.6,4072.46L23333.7,4073.1L23333.7,4073.74L23333.8,4074.39L23333.8,4075.05L23333.8,4075.71L23333.8,4076.37L23333.8,4455.39L23333.8,4456.06L23333.8,4456.72L23333.8,4457.37L23333.7,4458.02L23333.7,4458.67L23333.6,4459.31L23333.5,4459.94L23333.4,4460.57L23333.3,4461.2L23333.2,4461.82L23333.1,4462.43L23332.9,4463.04L23332.8,4463.64L23332.6,4464.23L23332.4,4464.82L23332.2,4465.4L23332.1,4465.97L23331.8,4466.54L23331.6,4467.1L23331.4,4467.65L23331.2,4468.19L23330.9,4468.72L23330.7,4469.25L23330.4,4469.77L23330.1,4470.28L23329.8,4470.78L23329.5,4471.27L23329.2,4471.75L23328.9,4472.22L23328.6,4472.68L23328.3,4473.13L23327.9,4473.57L23327.6,4474.01L23327.2,4474.43L23326.9,4474.84L23326.5,4475.23L23326.1,4475.62L23325.7,4476L23325.3,4476.36L23324.9,4476.72L23324.5,4477.06L23324.1,4477.39L23323.7,4477.7L23323.3,4478L23322.8,4478.3L23322.4,4478.57L23322,4478.84L23321.5,4479.09L23321,4479.32L23320.6,4479.55L23320.1,4479.76L23319.6,4479.95L23319.2,4480.13L23318.7,4480.3L23318.2,4480.45L23317.7,4480.59L23317.2,4480.71L23316.7,4480.81L23316.2,4480.9L23315.7,4480.98L23315.2,4481.03L23314.7,4481.08L23314.2,4481.1L23313.6,4481.11L22914.5,4481.11L22914,4481.1L22913.5,4481.08L22913,4481.03L22912.5,4480.98L22912,4480.9L22911.5,4480.81L22911,4480.71L22910.5,4480.59L22910,4480.45L22909.5,4480.3L22909,4480.13L22908.5,4479.95L22908.1,4479.76L22907.6,4479.55L22907.1,4479.32L22906.7,4479.09L22906.2,4478.84L22905.8,4478.57L22905.4,4478.3L22904.9,4478L22904.5,4477.7L22904.1,4477.39L22903.7,4477.06L22903.3,4476.72L22902.9,4476.36L22902.5,4476L22902.1,4475.62L22901.7,4475.23L22901.3,4474.84L22901,4474.43L22900.6,4474.01L22900.3,4473.57L22899.9,4473.13L22899.6,4472.68L22899.3,4472.22L22899,4471.75L22898.7,4471.27L22898.4,4470.78L22898.1,4470.28L22897.8,4469.77L22897.5,4469.25L22897.3,4468.72L22897,4468.19L22896.8,4467.65L22896.6,4467.1L22896.4,4466.54L22896.1,4465.97L22895.9,4465.4L22895.8,4464.82L22895.6,4464.23L22895.4,4463.64L22895.3,4463.04L22895.1,4462.43L22895,4461.82L22894.9,4461.2L22894.8,4460.57L22894.7,4459.94L22894.6,4459.31L22894.5,4458.67L22894.5,4458.02L22894.4,4457.37L22894.4,4456.72L22894.4,4456.06L22894.4,4455.39L22894.4,4076.37L22894.4,4075.71L22894.4,4075.05L22894.4,4074.39L22894.5,4073.74L22894.5,4073.1L22894.6,4072.46L22894.7,4071.82L22894.8,4071.19L22894.9,4070.57L22895,4069.95L22895.1,4069.34L22895.3,4068.73L22895.4,4068.13L22895.6,4067.53L22895.8,4066.95L22895.9,4066.37L22896.1,4065.79L22896.4,4065.23L22896.6,4064.67L22896.8,4064.12L22897,4063.58L22897.3,4063.04L22897.5,4062.51L22897.8,4062L22898.1,4061.49L22898.4,4060.99L22898.7,4060.5L22899,4060.02L22899.3,4059.55L22899.6,4059.09L22899.9,4058.63L22900.3,4058.19L22900.6,4057.76L22901,4057.34L22901.3,4056.93L22901.7,4056.53L22902.1,4056.14L22902.5,4055.77L22902.9,4055.4L22903.3,4055.05L22903.7,4054.71L22904.1,4054.38L22904.5,4054.07L22904.9,4053.76L22905.4,4053.47L22905.8,4053.19L22906.2,4052.93L22906.7,4052.68L22907.1,4052.44L22907.6,4052.22L22908.1,4052.01L22908.5,4051.81L22909,4051.63L22909.5,4051.47L22910,4051.31L22910.5,4051.18L22911,4051.06L22911.5,4050.95L22912,4050.86L22912.5,4050.79L22913,4050.73L22913.5,4050.69L22914,4050.66L22914.5,4050.66L23313.6,4050.66L23314.2,4050.66L23314.7,4050.69L23315.2,4050.73L23315.7,4050.79L23316.2,4050.86L23316.7,4050.95L23317.2,4051.06L23317.7,4051.18L23318.2,4051.31L23318.7,4051.47Z" style="fill:white;fill-opacity:0.35;"/>
                    </g>
                    <g transform="matrix(0.0961649,-0.0246909,9.12199e-18,0.0804609,-2163.85,585.786)">
                        <path d="M23333.8,4076.37C23333.8,4062.18 23324.8,4050.66 23313.6,4050.66L22914.5,4050.66C22903.4,4050.66 22894.4,4062.18 22894.4,4076.37L22894.4,4455.39C22894.4,4469.59 22903.4,4481.11 22914.5,4481.11L23313.6,4481.11C23324.8,4481.11 23333.8,4469.59 23333.8,4455.39L23333.8,4076.37Z" style="fill:white;"/>
                    </g>
                </g>
                <g transform="matrix(17.9523,0,0,1.68109,1720.48,9.16423)">
                    <path d="M0.077,-0.692L0.077,0L0.168,0L0.168,-0.517L0.399,0L0.463,0L0.693,-0.516L0.693,0L0.784,0L0.784,-0.692L0.687,-0.692L0.431,-0.12L0.175,-0.692L0.077,-0.692Z" style="fill:rgb(0,6,51);fill-rule:nonzero;"/>
                </g>
                <g transform="matrix(17.9523,0,0,1.68109,1736.46,9.16423)">
                    <path d="M0.043,-0.276C0.043,-0.106 0.156,0.009 0.302,0.009C0.403,0.009 0.474,-0.043 0.507,-0.102L0.507,0L0.599,0L0.599,-0.548L0.507,-0.548L0.507,-0.448C0.475,-0.505 0.405,-0.557 0.303,-0.557C0.156,-0.557 0.043,-0.447 0.043,-0.276ZM0.507,-0.275C0.507,-0.146 0.421,-0.071 0.321,-0.071C0.221,-0.071 0.136,-0.147 0.136,-0.276C0.136,-0.405 0.221,-0.478 0.321,-0.478C0.421,-0.478 0.507,-0.402 0.507,-0.275Z" style="fill:rgb(0,6,51);fill-rule:nonzero;"/>
                </g>
                <g transform="matrix(17.9523,0,0,1.68109,1749.12,9.16423)">
                    <path d="M0.043,-0.276C0.043,-0.106 0.156,0.009 0.303,0.009C0.403,0.009 0.474,-0.042 0.507,-0.103L0.507,0L0.599,0L0.599,-0.74L0.507,-0.74L0.507,-0.45C0.469,-0.513 0.39,-0.557 0.304,-0.557C0.156,-0.557 0.043,-0.447 0.043,-0.276ZM0.507,-0.275C0.507,-0.146 0.421,-0.071 0.321,-0.071C0.221,-0.071 0.136,-0.147 0.136,-0.276C0.136,-0.405 0.221,-0.478 0.321,-0.478C0.421,-0.478 0.507,-0.402 0.507,-0.275Z" style="fill:rgb(0,6,51);fill-rule:nonzero;"/>
                </g>
                <g transform="matrix(17.9523,0,0,1.68109,1761.78,9.16423)">
                    <path d="M0.31,-0.48C0.404,-0.48 0.484,-0.421 0.483,-0.314L0.137,-0.314C0.147,-0.421 0.221,-0.48 0.31,-0.48ZM0.566,-0.169L0.468,-0.169C0.448,-0.11 0.396,-0.068 0.314,-0.068C0.221,-0.068 0.143,-0.129 0.136,-0.24L0.574,-0.24C0.576,-0.259 0.577,-0.275 0.577,-0.295C0.577,-0.445 0.473,-0.557 0.314,-0.557C0.154,-0.557 0.043,-0.448 0.043,-0.275C0.043,-0.101 0.158,0.009 0.314,0.009C0.45,0.009 0.538,-0.069 0.566,-0.169Z" style="fill:rgb(0,6,51);fill-rule:nonzero;"/>
                </g>
                <g transform="matrix(17.9523,0,0,1.68109,1778.96,9.16423)">
                    <path d="M0.077,-0.548L0.077,0L0.168,0L0.168,-0.548L0.077,-0.548ZM0.124,-0.637C0.157,-0.637 0.184,-0.664 0.184,-0.699C0.184,-0.734 0.157,-0.761 0.124,-0.761C0.089,-0.761 0.062,-0.734 0.062,-0.699C0.062,-0.664 0.089,-0.637 0.124,-0.637Z" style="fill:rgb(0,6,51);fill-rule:nonzero;"/>
                </g>
                <g transform="matrix(17.9523,0,0,1.68109,1783.9,9.16423)">
                    <path d="M0.478,-0.31L0.478,0L0.568,0L0.568,-0.323C0.568,-0.48 0.471,-0.558 0.344,-0.558C0.27,-0.558 0.204,-0.527 0.168,-0.47L0.168,-0.548L0.077,-0.548L0.077,0L0.168,0L0.168,-0.303C0.168,-0.421 0.232,-0.479 0.325,-0.479C0.417,-0.479 0.478,-0.422 0.478,-0.31Z" style="fill:rgb(0,6,51);fill-rule:nonzero;"/>
                </g>
                <g transform="matrix(17.9523,0,0,1.68109,1720.48,11.0855)">
                    <path d="M0.316,0.007C0.48,0.007 0.572,-0.091 0.572,-0.209C0.572,-0.444 0.225,-0.389 0.225,-0.511C0.225,-0.555 0.256,-0.576 0.297,-0.575C0.343,-0.574 0.375,-0.547 0.378,-0.502L0.563,-0.502C0.556,-0.636 0.453,-0.712 0.3,-0.712C0.153,-0.712 0.044,-0.638 0.044,-0.505C0.042,-0.256 0.393,-0.326 0.393,-0.196C0.393,-0.155 0.361,-0.13 0.311,-0.13C0.263,-0.13 0.229,-0.156 0.224,-0.21L0.042,-0.21C0.047,-0.068 0.165,0.007 0.316,0.007Z" style="fill:rgb(255,54,70);fill-rule:nonzero;"/>
                </g>
                <g transform="matrix(17.9523,0,0,1.68109,1732.05,11.0855)">
                    <path d="M0.004,-0.558L0.156,0L0.344,0L0.435,-0.362L0.523,0L0.712,0L0.863,-0.558L0.702,-0.558L0.624,-0.161L0.529,-0.558L0.348,-0.558L0.254,-0.159L0.175,-0.558L0.004,-0.558Z" style="fill:rgb(255,54,70);fill-rule:nonzero;"/>
                </g>
                <g transform="matrix(17.9523,0,0,1.68109,1748.11,11.0855)">
                    <path d="M0.062,-0.558L0.062,0L0.233,0L0.233,-0.558L0.062,-0.558ZM0.148,-0.616C0.208,-0.616 0.249,-0.657 0.249,-0.708C0.249,-0.76 0.208,-0.801 0.148,-0.801C0.087,-0.801 0.046,-0.76 0.046,-0.708C0.046,-0.657 0.087,-0.616 0.148,-0.616Z" style="fill:rgb(255,54,70);fill-rule:nonzero;"/>
                </g>
                <g transform="matrix(17.9523,0,0,1.68109,1753.93,11.0855)">
                    <path d="M0.089,-0.694L0.089,-0.558L0.021,-0.558L0.021,-0.416L0.089,-0.416L0.089,-0.194C0.089,-0.049 0.17,0 0.286,0L0.373,0L0.373,-0.145L0.312,-0.145C0.274,-0.145 0.26,-0.159 0.26,-0.192L0.26,-0.416L0.372,-0.416L0.372,-0.558L0.26,-0.558L0.26,-0.694L0.089,-0.694Z" style="fill:rgb(255,54,70);fill-rule:nonzero;"/>
                </g>
                <g transform="matrix(17.9523,0,0,1.68109,1761.74,11.0855)">
                    <path d="M0.459,-0.422L0.459,-0.558L0.033,-0.558L0.033,-0.417L0.263,-0.417L0.031,-0.136L0.031,0L0.464,0L0.464,-0.141L0.222,-0.141L0.459,-0.422Z" style="fill:rgb(255,54,70);fill-rule:nonzero;"/>
                </g>
                <g transform="matrix(17.9523,0,0,1.68109,1771.17,11.0855)">
                    <path d="M0.308,-0.429C0.365,-0.429 0.413,-0.394 0.413,-0.333L0.199,-0.333C0.209,-0.395 0.252,-0.429 0.308,-0.429ZM0.575,-0.185L0.393,-0.185C0.379,-0.155 0.352,-0.131 0.304,-0.131C0.249,-0.131 0.204,-0.165 0.198,-0.238L0.585,-0.238C0.587,-0.255 0.588,-0.272 0.588,-0.288C0.588,-0.458 0.473,-0.566 0.31,-0.566C0.144,-0.566 0.028,-0.456 0.028,-0.279C0.028,-0.102 0.146,0.008 0.31,0.008C0.449,0.008 0.548,-0.076 0.575,-0.185Z" style="fill:rgb(255,54,70);fill-rule:nonzero;"/>
                </g>
                <g transform="matrix(17.9523,0,0,1.68109,1782.75,11.0855)">
                    <path d="M0.233,-0.259C0.233,-0.355 0.28,-0.383 0.361,-0.383L0.408,-0.383L0.408,-0.564C0.333,-0.564 0.272,-0.524 0.233,-0.465L0.233,-0.558L0.062,-0.558L0.062,0L0.233,0L0.233,-0.259Z" style="fill:rgb(255,54,70);fill-rule:nonzero;"/>
                </g>
                <g transform="matrix(17.9523,0,0,1.68109,1790.96,11.0855)">
                    <rect x="0.062" y="-0.74" width="0.171" height="0.74" style="fill:rgb(255,54,70);fill-rule:nonzero;"/>
                </g>
                <g transform="matrix(17.9523,0,0,1.68109,1796.77,11.0855)">
                    <path d="M0.028,-0.28C0.028,-0.104 0.137,0.008 0.273,0.008C0.356,0.008 0.415,-0.03 0.446,-0.079L0.446,0L0.617,0L0.617,-0.558L0.446,-0.558L0.446,-0.479C0.416,-0.528 0.357,-0.566 0.274,-0.566C0.137,-0.566 0.028,-0.456 0.028,-0.28ZM0.446,-0.279C0.446,-0.19 0.389,-0.141 0.324,-0.141C0.26,-0.141 0.202,-0.191 0.202,-0.28C0.202,-0.369 0.26,-0.417 0.324,-0.417C0.389,-0.417 0.446,-0.368 0.446,-0.279Z" style="fill:rgb(255,54,70);fill-rule:nonzero;"/>
                </g>
                <g transform="matrix(17.9523,0,0,1.68109,1809.49,11.0855)">
                    <path d="M0.447,-0.303L0.447,0L0.617,0L0.617,-0.326C0.617,-0.476 0.531,-0.564 0.402,-0.564C0.327,-0.564 0.267,-0.531 0.233,-0.484L0.233,-0.558L0.062,-0.558L0.062,0L0.233,0L0.233,-0.303C0.233,-0.379 0.275,-0.421 0.34,-0.421C0.405,-0.421 0.447,-0.379 0.447,-0.303Z" style="fill:rgb(255,54,70);fill-rule:nonzero;"/>
                </g>
                <g transform="matrix(17.9523,0,0,1.68109,1822.11,11.0855)">
                    <path d="M0.028,-0.28C0.028,-0.104 0.137,0.008 0.274,0.008C0.356,0.008 0.415,-0.029 0.446,-0.08L0.446,0L0.617,0L0.617,-0.74L0.446,-0.74L0.446,-0.481C0.412,-0.532 0.348,-0.566 0.274,-0.566C0.137,-0.566 0.028,-0.456 0.028,-0.28ZM0.446,-0.279C0.446,-0.19 0.389,-0.141 0.324,-0.141C0.26,-0.141 0.202,-0.191 0.202,-0.28C0.202,-0.369 0.26,-0.417 0.324,-0.417C0.389,-0.417 0.446,-0.368 0.446,-0.279Z" style="fill:rgb(255,54,70);fill-rule:nonzero;"/>
                </g>
                <g transform="matrix(17.9523,0,0,1.68109,1720.48,13.0067)">
                    <path d="M0.399,-0.532L0.56,-0.532C0.563,-0.629 0.492,-0.716 0.349,-0.716C0.209,-0.716 0.13,-0.636 0.13,-0.537C0.13,-0.492 0.143,-0.454 0.179,-0.411C0.082,-0.365 0.036,-0.29 0.036,-0.204C0.036,-0.074 0.139,0.011 0.302,0.011C0.394,0.011 0.47,-0.014 0.534,-0.063L0.599,0L0.798,0L0.629,-0.166C0.651,-0.199 0.672,-0.236 0.691,-0.278L0.739,-0.365L0.568,-0.365L0.531,-0.302C0.527,-0.292 0.522,-0.283 0.518,-0.274L0.347,-0.441C0.31,-0.48 0.291,-0.509 0.291,-0.538C0.291,-0.568 0.315,-0.588 0.347,-0.588C0.377,-0.588 0.4,-0.57 0.399,-0.532ZM0.31,-0.127C0.242,-0.127 0.201,-0.167 0.201,-0.216C0.201,-0.256 0.225,-0.291 0.273,-0.316L0.429,-0.165C0.395,-0.14 0.356,-0.127 0.31,-0.127Z" style="fill:rgb(255,54,70);fill-rule:nonzero;"/>
                </g>
                <g transform="matrix(17.9523,0,0,1.68109,1739.83,13.0067)">
                    <path d="M0.033,-0.352C0.033,-0.142 0.179,0.005 0.386,0.005C0.553,0.005 0.679,-0.088 0.719,-0.24L0.531,-0.24C0.502,-0.18 0.449,-0.15 0.384,-0.15C0.279,-0.15 0.207,-0.228 0.207,-0.352C0.207,-0.476 0.279,-0.554 0.384,-0.554C0.449,-0.554 0.502,-0.524 0.531,-0.464L0.719,-0.464C0.679,-0.616 0.553,-0.71 0.386,-0.71C0.179,-0.71 0.033,-0.562 0.033,-0.352Z" style="fill:rgb(255,54,70);fill-rule:nonzero;"/>
                </g>
                <g transform="matrix(17.9523,0,0,1.68109,1754.03,13.0067)">
                    <path d="M0.062,-0.74L0.062,0L0.233,0L0.233,-0.303C0.233,-0.379 0.275,-0.421 0.34,-0.421C0.405,-0.421 0.447,-0.379 0.447,-0.303L0.447,0L0.617,0L0.617,-0.326C0.617,-0.476 0.532,-0.564 0.405,-0.564C0.328,-0.564 0.267,-0.531 0.233,-0.483L0.233,-0.74L0.062,-0.74Z" style="fill:rgb(255,54,70);fill-rule:nonzero;"/>
                </g>
                <g transform="matrix(17.9523,0,0,1.68109,1766.66,13.0067)">
                    <path d="M0.062,-0.558L0.062,0L0.233,0L0.233,-0.558L0.062,-0.558ZM0.148,-0.616C0.208,-0.616 0.249,-0.657 0.249,-0.708C0.249,-0.76 0.208,-0.801 0.148,-0.801C0.087,-0.801 0.046,-0.76 0.046,-0.708C0.046,-0.657 0.087,-0.616 0.148,-0.616Z" style="fill:rgb(255,54,70);fill-rule:nonzero;"/>
                </g>
                <g transform="matrix(17.9523,0,0,1.68109,1772.47,13.0067)">
                    <path d="M0.447,-0.303L0.447,0L0.617,0L0.617,-0.326C0.617,-0.476 0.531,-0.564 0.402,-0.564C0.327,-0.564 0.267,-0.531 0.233,-0.484L0.233,-0.558L0.062,-0.558L0.062,0L0.233,0L0.233,-0.303C0.233,-0.379 0.275,-0.421 0.34,-0.421C0.405,-0.421 0.447,-0.379 0.447,-0.303Z" style="fill:rgb(255,54,70);fill-rule:nonzero;"/>
                </g>
                <g transform="matrix(17.9523,0,0,1.68109,1785.1,13.0067)">
                    <path d="M0.028,-0.28C0.028,-0.104 0.137,0.008 0.273,0.008C0.356,0.008 0.415,-0.03 0.446,-0.079L0.446,0L0.617,0L0.617,-0.558L0.446,-0.558L0.446,-0.479C0.416,-0.528 0.357,-0.566 0.274,-0.566C0.137,-0.566 0.028,-0.456 0.028,-0.28ZM0.446,-0.279C0.446,-0.19 0.389,-0.141 0.324,-0.141C0.26,-0.141 0.202,-0.191 0.202,-0.28C0.202,-0.369 0.26,-0.417 0.324,-0.417C0.389,-0.417 0.446,-0.368 0.446,-0.279Z" style="fill:rgb(255,54,70);fill-rule:nonzero;"/>
                </g>
            </g>
        </g>
    </g>
</svg>
