<?xml version="1.0" encoding="UTF-8" standalone="no"?>
<!DOCTYPE svg PUBLIC "-//W3C//DTD SVG 1.1//EN" "http://www.w3.org/Graphics/SVG/1.1/DTD/svg11.dtd">
<svg width="100%" height="100%" viewBox="0 0 1568 420" version="1.1" xmlns="http://www.w3.org/2000/svg" xmlns:xlink="http://www.w3.org/1999/xlink" xml:space="preserve" xmlns:serif="http://www.serif.com/" style="fill-rule:evenodd;clip-rule:evenodd;stroke-linejoin:round;stroke-miterlimit:2;">
    <g transform="matrix(1,0,0,1,-35953.1,-3395.19)">
        <path d="M37520.6,3395.19L37520.6,3814.64L35953.1,3814.64L35953.1,3395.19L37520.6,3395.19ZM36800.7,3651.19C36826.4,3651.19 36847.1,3631.95 36847.1,3604.65C36847.1,3577.48 36826.6,3558.24 36800.7,3558.24C36775.1,3558.24 36754.2,3577.48 36754.2,3604.65C36754.2,3631.95 36775.1,3651.19 36800.7,3651.19ZM37040.4,3651.19C37066.2,3651.19 37086.8,3631.95 37086.8,3604.65C37086.8,3577.48 37066.3,3558.24 37040.4,3558.24C37014.8,3558.24 36993.9,3577.48 36993.9,3604.65C36993.9,3631.95 37014.8,3651.19 37040.4,3651.19ZM36416.3,3621.68C36412,3630.54 36404.2,3634.81 36394.5,3634.81C36378.6,3634.81 36367.3,3623.11 36367.3,3604.78C36367.3,3586.32 36378.6,3574.75 36394.5,3574.75C36404.2,3574.75 36412,3579.04 36416.3,3587.75L36437.2,3587.75C36431.1,3569.16 36414.7,3558.37 36394.6,3558.37C36368.5,3558.37 36348.6,3577.61 36348.6,3604.78C36348.6,3631.95 36368.5,3651.06 36394.6,3651.06C36414.7,3651.06 36431.1,3640.42 36437.2,3621.68L36416.3,3621.68ZM37207.7,3613.75C37205,3626.64 37196,3634.68 37182,3634.68C37165.1,3634.68 37153.7,3623.24 37153.7,3604.78C37153.7,3586.71 37165,3575.14 37181.2,3575.14C37190.8,3575.14 37198.4,3579.17 37202.5,3586.84L37223.5,3586.84C37217.6,3568.64 37201.5,3558.37 37181.2,3558.37C37155,3558.37 37134.9,3577.61 37134.9,3604.78C37134.9,3631.95 37155,3651.06 37181.3,3651.06C37205.5,3651.06 37222,3634.16 37225.7,3615.7L37225.7,3599.84L37176.5,3599.84L37176.5,3613.75L37207.7,3613.75ZM36917.8,3559.54L36899.6,3559.54L36899.6,3650.28L36947.7,3650.28L36947.7,3635.85L36917.8,3635.85L36917.8,3559.54ZM36297.5,3559.41L36244.8,3559.41L36244.8,3650.28L36297.5,3650.28L36297.5,3635.46L36263,3635.46L36263,3611.41L36293.6,3611.41L36293.6,3596.98L36263,3596.98L36263,3574.23L36297.5,3574.23L36297.5,3559.41ZM36192.6,3559.54L36126,3559.54L36126,3574.23L36150.2,3574.23L36150.2,3650.28L36168.4,3650.28L36168.4,3574.23L36192.6,3574.23L36192.6,3559.54ZM36510,3559.54L36491.8,3559.54L36491.8,3650.28L36510,3650.28L36510,3611.67L36548.9,3611.67L36548.9,3650.28L36567.1,3650.28L36567.1,3559.54L36548.9,3559.54L36548.9,3596.85L36510,3596.85L36510,3559.54ZM36642.2,3559.41L36624,3559.41L36624,3650.28L36642.2,3650.28L36642.2,3588.01L36683.4,3650.28L36701.6,3650.28L36701.6,3559.41L36683.4,3559.41L36683.4,3621.81L36642.2,3559.41ZM37291.2,3559.54L37270.7,3559.54L37301.5,3618.69L37301.5,3650.28L37319.7,3650.28L37319.7,3618.69L37350.3,3559.54L37330.1,3559.54L37310.7,3601.01L37291.2,3559.54ZM36800.7,3634.94C36784.2,3634.94 36772.9,3623.11 36772.9,3604.65C36772.9,3586.19 36784.2,3574.62 36800.7,3574.62C36817.1,3574.62 36828.4,3586.19 36828.4,3604.65C36828.4,3623.11 36817.1,3634.94 36800.7,3634.94ZM37040.4,3634.94C37023.9,3634.94 37012.6,3623.11 37012.6,3604.65C37012.6,3586.19 37023.9,3574.62 37040.4,3574.62C37056.8,3574.62 37068.1,3586.19 37068.1,3604.65C37068.1,3623.11 37056.8,3634.94 37040.4,3634.94Z" style="fill:rgb(25,26,34);"/>
    </g>
</svg>
