<?xml version="1.0" encoding="UTF-8" standalone="no"?>
<!DOCTYPE svg PUBLIC "-//W3C//DTD SVG 1.1//EN" "http://www.w3.org/Graphics/SVG/1.1/DTD/svg11.dtd">
<svg width="100%" height="100%" viewBox="0 0 98 123" version="1.1" xmlns="http://www.w3.org/2000/svg" xmlns:xlink="http://www.w3.org/1999/xlink" xml:space="preserve" xmlns:serif="http://www.serif.com/" style="fill-rule:evenodd;clip-rule:evenodd;stroke-linejoin:round;stroke-miterlimit:2;">
    <g transform="matrix(1,0,0,1,-26125.9,-2752.85)">
        <g transform="matrix(1,0,0,10.679,25215.4,752.543)">
            <g transform="matrix(1.1269,0,0,0.105525,279.77,178.943)">
                <g>
                    <g transform="matrix(0.223697,-0.0394438,-5.20417e-18,0.145792,-4575.44,391.467)">
                        <path d="M23021.3,4363.01C23021.3,4356.4 23017.9,4351.04 23013.7,4351.04L22963.5,4351.04C22959.3,4351.04 22955.9,4356.4 22955.9,4363.01L22955.9,4451.6C22955.9,4458.21 22959.3,4463.58 22963.5,4463.58L23013.7,4463.58C23017.9,4463.58 23021.3,4458.21 23021.3,4451.6L23021.3,4363.01Z" style="fill:rgb(15,15,64);"/>
                    </g>
                    <g transform="matrix(0.223697,-0.0394438,-5.20417e-18,0.145792,-4527.26,382.964)">
                        <path d="M23021.3,4363.01C23021.3,4356.4 23017.9,4351.04 23013.7,4351.04L22963.5,4351.04C22959.3,4351.04 22955.9,4356.4 22955.9,4363.01L22955.9,4451.6C22955.9,4458.21 22959.3,4463.58 22963.5,4463.58L23013.7,4463.58C23017.9,4463.58 23021.3,4458.21 23021.3,4451.6L23021.3,4363.01Z" style="fill:rgb(15,15,64);"/>
                    </g>
                    <g transform="matrix(0.223697,-0.0394438,-6.93889e-18,0.145792,-4551.31,387.208)">
                        <path d="M23021.3,4363.01C23021.3,4356.4 23017.9,4351.04 23013.7,4351.04L22963.5,4351.04C22959.3,4351.04 22955.9,4356.4 22955.9,4363.01L22955.9,4451.6C22955.9,4458.21 22959.3,4463.58 22963.5,4463.58L23013.7,4463.58C23017.9,4463.58 23021.3,4458.21 23021.3,4451.6L23021.3,4363.01Z" style="fill:rgb(227,227,227);"/>
                    </g>
                    <g transform="matrix(0.223697,-0.0394438,-5.20417e-18,0.145792,-4503.12,378.705)">
                        <path d="M23021.3,4363.01C23021.3,4356.4 23017.9,4351.04 23013.7,4351.04L22963.5,4351.04C22959.3,4351.04 22955.9,4356.4 22955.9,4363.01L22955.9,4451.6C22955.9,4458.21 22959.3,4463.58 22963.5,4463.58L23013.7,4463.58C23017.9,4463.58 23021.3,4458.21 23021.3,4451.6L23021.3,4363.01Z" style="fill:rgb(227,227,227);"/>
                    </g>
                    <g transform="matrix(0.223697,-0.0394438,-5.20417e-18,0.145792,-4551.31,361.237)">
                        <path d="M23021.3,4363.01C23021.3,4356.4 23017.9,4351.04 23013.7,4351.04L22963.5,4351.04C22959.3,4351.04 22955.9,4356.4 22955.9,4363.01L22955.9,4451.6C22955.9,4458.21 22959.3,4463.58 22963.5,4463.58L23013.7,4463.58C23017.9,4463.58 23021.3,4458.21 23021.3,4451.6L23021.3,4363.01Z" style="fill:rgb(15,15,64);"/>
                    </g>
                    <g transform="matrix(0.223697,-0.0394438,-6.93889e-18,0.145792,-4503.12,352.734)">
                        <path d="M23021.3,4363.01C23021.3,4356.4 23017.9,4351.04 23013.7,4351.04L22963.5,4351.04C22959.3,4351.04 22955.9,4356.4 22955.9,4363.01L22955.9,4451.6C22955.9,4458.21 22959.3,4463.58 22963.5,4463.58L23013.7,4463.58C23017.9,4463.58 23021.3,4458.21 23021.3,4451.6L23021.3,4363.01Z" style="fill:rgb(15,15,64);"/>
                    </g>
                    <g transform="matrix(0.223697,-0.0394438,-6.93889e-18,0.145792,-4575.44,365.497)">
                        <path d="M23021.3,4363.01C23021.3,4356.4 23017.9,4351.04 23013.7,4351.04L22963.5,4351.04C22959.3,4351.04 22955.9,4356.4 22955.9,4363.01L22955.9,4451.6C22955.9,4458.21 22959.3,4463.58 22963.5,4463.58L23013.7,4463.58C23017.9,4463.58 23021.3,4458.21 23021.3,4451.6L23021.3,4363.01Z" style="fill:rgb(227,227,227);"/>
                    </g>
                    <g transform="matrix(0.223697,-0.0394438,-3.46945e-18,0.145792,-4527.26,356.994)">
                        <path d="M23021.3,4363.01C23021.3,4356.4 23017.9,4351.04 23013.7,4351.04L22963.5,4351.04C22959.3,4351.04 22955.9,4356.4 22955.9,4363.01L22955.9,4451.6C22955.9,4458.21 22959.3,4463.58 22963.5,4463.58L23013.7,4463.58C23017.9,4463.58 23021.3,4458.21 23021.3,4451.6L23021.3,4363.01Z" style="fill:rgb(227,227,227);"/>
                    </g>
                    <g transform="matrix(0.223697,-0.0394438,-5.20417e-18,0.145792,-4575.44,417.441)">
                        <path d="M23021.3,4363.01C23021.3,4356.4 23017.9,4351.04 23013.7,4351.04L22963.5,4351.04C22959.3,4351.04 22955.9,4356.4 22955.9,4363.01L22955.9,4451.6C22955.9,4458.21 22959.3,4463.58 22963.5,4463.58L23013.7,4463.58C23017.9,4463.58 23021.3,4458.21 23021.3,4451.6L23021.3,4363.01Z" style="fill:rgb(227,227,227);"/>
                    </g>
                    <g transform="matrix(0.223697,-0.0394438,-5.20417e-18,0.145792,-4527.26,408.938)">
                        <path d="M23021.3,4363.01C23021.3,4356.4 23017.9,4351.04 23013.7,4351.04L22963.5,4351.04C22959.3,4351.04 22955.9,4356.4 22955.9,4363.01L22955.9,4451.6C22955.9,4458.21 22959.3,4463.58 22963.5,4463.58L23013.7,4463.58C23017.9,4463.58 23021.3,4458.21 23021.3,4451.6L23021.3,4363.01Z" style="fill:rgb(227,227,227);"/>
                    </g>
                    <g transform="matrix(0.223697,-0.0394438,-5.20417e-18,0.145792,-4575.44,443.399)">
                        <path d="M23021.3,4363.01C23021.3,4356.4 23017.9,4351.04 23013.7,4351.04L22963.5,4351.04C22959.3,4351.04 22955.9,4356.4 22955.9,4363.01L22955.9,4451.6C22955.9,4458.21 22959.3,4463.58 22963.5,4463.58L23013.7,4463.58C23017.9,4463.58 23021.3,4458.21 23021.3,4451.6L23021.3,4363.01Z" style="fill:rgb(15,15,64);"/>
                    </g>
                    <g transform="matrix(0.223697,-0.0394438,-5.20417e-18,0.145792,-4527.26,434.896)">
                        <path d="M23021.3,4363.01C23021.3,4356.4 23017.9,4351.04 23013.7,4351.04L22963.5,4351.04C22959.3,4351.04 22955.9,4356.4 22955.9,4363.01L22955.9,4451.6C22955.9,4458.21 22959.3,4463.58 22963.5,4463.58L23013.7,4463.58C23017.9,4463.58 23021.3,4458.21 23021.3,4451.6L23021.3,4363.01Z" style="fill:rgb(15,15,64);"/>
                    </g>
                    <g transform="matrix(0.223697,-0.0394438,-6.93889e-18,0.145792,-4551.31,413.182)">
                        <path d="M23021.3,4363.01C23021.3,4356.4 23017.9,4351.04 23013.7,4351.04L22963.5,4351.04C22959.3,4351.04 22955.9,4356.4 22955.9,4363.01L22955.9,4451.6C22955.9,4458.21 22959.3,4463.58 22963.5,4463.58L23013.7,4463.58C23017.9,4463.58 23021.3,4458.21 23021.3,4451.6L23021.3,4363.01Z" style="fill:rgb(15,15,64);"/>
                    </g>
                    <g transform="matrix(0.223697,-0.0394438,-3.46945e-18,0.145792,-4503.12,404.679)">
                        <path d="M23021.3,4363.01C23021.3,4356.4 23017.9,4351.04 23013.7,4351.04L22963.5,4351.04C22959.3,4351.04 22955.9,4356.4 22955.9,4363.01L22955.9,4451.6C22955.9,4458.21 22959.3,4463.58 22963.5,4463.58L23013.7,4463.58C23017.9,4463.58 23021.3,4458.21 23021.3,4451.6L23021.3,4363.01Z" style="fill:rgb(15,15,64);"/>
                    </g>
                    <g transform="matrix(0.223697,-0.0394438,-5.20417e-18,0.145792,-4551.31,439.139)">
                        <path d="M23021.3,4363.01C23021.3,4356.4 23017.9,4351.04 23013.7,4351.04L22963.5,4351.04C22959.3,4351.04 22955.9,4356.4 22955.9,4363.01L22955.9,4451.6C22955.9,4458.21 22959.3,4463.58 22963.5,4463.58L23013.7,4463.58C23017.9,4463.58 23021.3,4458.21 23021.3,4451.6L23021.3,4363.01Z" style="fill:rgb(227,227,227);"/>
                    </g>
                    <g transform="matrix(0.223697,-0.0394438,-5.20417e-18,0.145792,-4503.12,430.637)">
                        <path d="M23021.3,4363.01C23021.3,4356.4 23017.9,4351.04 23013.7,4351.04L22963.5,4351.04C22959.3,4351.04 22955.9,4356.4 22955.9,4363.01L22955.9,4451.6C22955.9,4458.21 22959.3,4463.58 22963.5,4463.58L23013.7,4463.58C23017.9,4463.58 23021.3,4458.21 23021.3,4451.6L23021.3,4363.01Z" style="fill:rgb(227,227,227);"/>
                    </g>
                </g>
            </g>
        </g>
    </g>
</svg>
