<?xml version="1.0" encoding="UTF-8" standalone="no"?>
<!DOCTYPE svg PUBLIC "-//W3C//DTD SVG 1.1//EN" "http://www.w3.org/Graphics/SVG/1.1/DTD/svg11.dtd">
<svg width="100%" height="100%" viewBox="0 0 112 128" version="1.1" xmlns="http://www.w3.org/2000/svg" xmlns:xlink="http://www.w3.org/1999/xlink" xml:space="preserve" xmlns:serif="http://www.serif.com/" style="fill-rule:evenodd;clip-rule:evenodd;stroke-linejoin:round;stroke-miterlimit:1.5;">
    <g transform="matrix(1,0,0,1,-26619.5,-2752.05)">
        <g transform="matrix(1,0,0,10.679,25215.4,752.543)">
            <g transform="matrix(1,0,0,0.731762,-40,3.81611)">
                <g transform="matrix(1.87501,0,0,0.240019,801.577,236.2)">
                    <g transform="matrix(0.182619,-0.032196,-1.43736e-34,0.179369,-3849.48,59.5806)">
                        <path d="M23021.3,4358.98C23021.3,4354.6 23017.9,4351.04 23013.7,4351.04L22963.5,4351.04C22959.3,4351.04 22955.9,4354.6 22955.9,4358.98L22955.9,4455.63C22955.9,4460.02 22959.3,4463.58 22963.5,4463.58L23013.7,4463.58C23017.9,4463.58 23021.3,4460.02 23021.3,4455.63L23021.3,4358.98Z" style="fill:rgb(15,15,64);"/>
                    </g>
                    <g transform="matrix(0.182619,-0.032196,-1.43736e-34,0.179369,-3825.6,20.7623)">
                        <path d="M23021.3,4358.98C23021.3,4354.6 23017.9,4351.04 23013.7,4351.04L22963.5,4351.04C22959.3,4351.04 22955.9,4354.6 22955.9,4358.98L22955.9,4455.63C22955.9,4460.02 22959.3,4463.58 22963.5,4463.58L23013.7,4463.58C23017.9,4463.58 23021.3,4460.02 23021.3,4455.63L23021.3,4358.98Z" style="fill:rgb(255,54,70);"/>
                    </g>
                    <g transform="matrix(0.195663,-0.0344957,0.204668,0.450774,-5039.44,-1103.13)">
                        <path d="M23021.3,4354.17C23021.3,4352.44 23017.9,4351.04 23013.7,4351.04L22963.5,4351.04C22959.3,4351.04 22955.9,4352.44 22955.9,4354.17L22955.9,4460.44C22955.9,4462.17 22959.3,4463.58 22963.5,4463.58L23013.7,4463.58C23017.9,4463.58 23021.3,4462.17 23021.3,4460.44L23021.3,4354.17Z" style="fill:rgb(15,15,64);"/>
                    </g>
                </g>
                <g transform="matrix(0.634589,0,0,0.634589,531.909,96.5439)">
                    <g transform="matrix(0.891457,0,0,0.10797,-7519.28,-38.4048)">
                        <rect x="10153.3" y="2724.73" width="84.818" height="111.177" style="fill:white;stroke:rgb(32,32,62);stroke-width:13.62px;"/>
                    </g>
                    <g transform="matrix(1,0,0,0.127967,-8788.25,-92.7113)">
                        <path d="M10333.6,2745.62L10375.5,2745.62" style="fill:none;stroke:rgb(32,32,62);stroke-width:5.52px;"/>
                    </g>
                    <g transform="matrix(1,0,0,0.127967,-8788.25,-91.0405)">
                        <path d="M10333.6,2745.62L10375.5,2745.62" style="fill:none;stroke:rgb(32,32,62);stroke-width:5.52px;"/>
                    </g>
                    <g transform="matrix(1,0,0,0.127967,-8788.25,-89.1579)">
                        <path d="M10333.6,2745.62L10375.5,2745.62" style="fill:none;stroke:rgb(32,32,62);stroke-width:5.52px;"/>
                    </g>
                    <g transform="matrix(1,0,0,0.127967,-8788.25,-86.9572)">
                        <path d="M10333.6,2745.62L10375.5,2745.62" style="fill:none;stroke:rgb(32,32,62);stroke-width:5.52px;"/>
                    </g>
                    <g transform="matrix(1,0,0,0.127967,-8788.25,-92.7113)">
                        <circle cx="10385.7" cy="2808.38" r="10.168" style="fill:white;stroke:rgb(255,54,70);stroke-width:5.52px;"/>
                    </g>
                </g>
            </g>
        </g>
    </g>
</svg>
