<?xml version="1.0" encoding="UTF-8" standalone="no"?>
<!DOCTYPE svg PUBLIC "-//W3C//DTD SVG 1.1//EN" "http://www.w3.org/Graphics/SVG/1.1/DTD/svg11.dtd">
<svg width="100%" height="100%" viewBox="0 0 231 237" version="1.1" xmlns="http://www.w3.org/2000/svg" xmlns:xlink="http://www.w3.org/1999/xlink" xml:space="preserve" xmlns:serif="http://www.serif.com/" style="fill-rule:evenodd;clip-rule:evenodd;stroke-linejoin:round;stroke-miterlimit:2;">
    <g transform="matrix(1,0,0,1,-25698,-2185.52)">
        <g transform="matrix(1,0,0,10.679,25422.8,782.543)">
            <g transform="matrix(0.68429,0,0,0.500738,209.521,53.4878)">
                <g transform="matrix(5.14309,-4.16334e-17,0,0.392884,-117968,-1553.9)">
                    <path d="M23021.3,4365.6C23021.3,4357.56 23017.4,4351.04 23012.6,4351.04L22964.6,4351.04C22959.8,4351.04 22955.9,4357.56 22955.9,4365.6L22955.9,4449.01C22955.9,4457.05 22959.8,4463.58 22964.6,4463.58L23012.6,4463.58C23017.4,4463.58 23021.3,4457.05 23021.3,4449.01L23021.3,4365.6Z" style="fill:rgb(23,28,61);"/>
                </g>
                <g transform="matrix(3.83463,0,0,0.490868,-1118.69,133.203)">
                    <g transform="matrix(0.182619,-0.032196,-1.43736e-34,0.179369,-3849.48,59.5806)">
                        <path d="M23021.3,4358.98C23021.3,4354.6 23017.9,4351.04 23013.7,4351.04L22963.5,4351.04C22959.3,4351.04 22955.9,4354.6 22955.9,4358.98L22955.9,4455.63C22955.9,4460.02 22959.3,4463.58 22963.5,4463.58L23013.7,4463.58C23017.9,4463.58 23021.3,4460.02 23021.3,4455.63L23021.3,4358.98Z" style="fill:white;"/>
                    </g>
                    <g transform="matrix(0.182619,-0.032196,-1.43736e-34,0.179369,-3825.6,20.7623)">
                        <path d="M23021.3,4358.98C23021.3,4354.6 23017.9,4351.04 23013.7,4351.04L22963.5,4351.04C22959.3,4351.04 22955.9,4354.6 22955.9,4358.98L22955.9,4455.63C22955.9,4460.02 22959.3,4463.58 22963.5,4463.58L23013.7,4463.58C23017.9,4463.58 23021.3,4460.02 23021.3,4455.63L23021.3,4358.98Z" style="fill:rgb(255,54,70);"/>
                    </g>
                    <g transform="matrix(0.195663,-0.0344957,0.204668,0.450774,-5039.44,-1103.13)">
                        <path d="M23021.3,4354.17C23021.3,4352.44 23017.9,4351.04 23013.7,4351.04L22963.5,4351.04C22959.3,4351.04 22955.9,4352.44 22955.9,4354.17L22955.9,4460.44C22955.9,4462.17 22959.3,4463.58 22963.5,4463.58L23013.7,4463.58C23017.9,4463.58 23021.3,4462.17 23021.3,4460.44L23021.3,4354.17Z" style="fill:white;"/>
                    </g>
                </g>
            </g>
        </g>
    </g>
</svg>
